<?xml version="1.0" standalone="no"?>
<!DOCTYPE svg PUBLIC "-//W3C//DTD SVG 20010904//EN"
 "http://www.w3.org/TR/2001/REC-SVG-20010904/DTD/svg10.dtd">
<svg version="1.0" xmlns="http://www.w3.org/2000/svg"
 width="192.000000pt" height="192.000000pt" viewBox="0 0 192.000000 192.000000"
 preserveAspectRatio="xMidYMid meet">
<metadata>
Created by potrace 1.11, written by Peter Selinger 2001-2013
</metadata>
<g transform="translate(0.000000,192.000000) scale(0.100000,-0.100000)"
fill="#000000" stroke="none">
<path d="M700 1661 c-114 -31 -250 -113 -250 -151 0 -28 33 -26 73 4 45 33
122 71 186 90 30 9 57 16 59 16 3 0 -17 -24 -45 -52 -93 -100 -147 -200 -178
-330 -19 -80 -19 -104 0 -112 20 -7 45 20 45 52 0 50 58 195 105 264 26 37 74
92 107 123 l60 55 36 -29 c20 -16 52 -45 70 -66 19 -20 39 -34 45 -32 27 9 17
41 -25 84 l-43 44 30 -7 c103 -24 190 -67 265 -131 l44 -38 -59 -5 c-53 -4
-60 -8 -63 -27 -3 -23 -1 -23 97 -23 94 0 100 1 107 22 5 18 -6 34 -69 95 -86
82 -163 125 -275 154 -95 24 -232 24 -322 0z"/>
<path d="M346 1417 c-37 -48 -85 -160 -93 -212 -4 -36 -2 -46 11 -51 24 -9 43
11 51 54 3 20 22 70 42 110 l35 72 90 0 c70 0 90 3 94 15 13 34 -15 45 -112
45 l-93 0 -25 -33z"/>
<path d="M740 1415 l0 -25 164 0 163 0 26 -58 c26 -57 40 -112 52 -204 l6 -48
-263 -2 c-255 -3 -263 -4 -263 -23 0 -20 7 -20 285 -20 l285 0 -1 90 c-2 96
-33 216 -74 283 l-20 32 -180 0 -180 0 0 -25z"/>
<path d="M1367 1357 c-3 -8 3 -33 14 -57 22 -49 45 -128 52 -182 l6 -38 -94 0
c-68 0 -94 -4 -98 -13 -12 -32 8 -38 124 -35 l114 3 3 35 c6 52 -26 190 -56
246 -27 49 -55 67 -65 41z"/>
<path d="M247 1074 c-13 -13 -7 -101 12 -177 26 -98 57 -159 79 -155 23 5 20
46 -11 133 -14 39 -28 89 -31 113 l-6 42 114 0 c123 0 126 -1 126 -58 0 -15 9
-63 19 -106 21 -87 46 -120 67 -91 10 13 8 31 -7 83 -11 37 -23 101 -27 142
l-7 75 -161 3 c-88 1 -163 -1 -167 -4z"/>
<path d="M926 974 c-14 -13 -16 -54 -16 -294 0 -266 1 -280 19 -290 11 -5 81
-10 155 -10 l136 0 0 -45 0 -44 -57 -3 c-50 -3 -58 -6 -58 -23 0 -19 7 -20
190 -20 183 0 190 1 190 20 0 17 -8 20 -57 23 l-58 3 0 44 0 45 139 0 c114 0
143 3 155 16 14 13 16 54 16 288 0 252 -1 274 -18 289 -17 15 -57 17 -370 17
-305 0 -353 -2 -366 -16z m704 -219 l0 -175 -335 0 -335 0 0 175 0 175 335 0
335 0 0 -175z m0 -275 l0 -40 -335 0 -335 0 0 40 0 40 335 0 335 0 0 -40z
m-310 -145 c0 -38 -3 -45 -20 -45 -17 0 -20 7 -20 45 0 38 3 45 20 45 17 0 20
-7 20 -45z"/>
<path d="M1282 501 c-20 -12 -10 -46 13 -46 14 0 20 7 20 24 0 27 -13 35 -33
22z"/>
<path d="M365 710 c-13 -20 7 -50 75 -113 82 -76 158 -118 263 -147 160 -44
212 -10 117 77 -28 26 -76 80 -106 120 l-55 73 -144 0 c-86 0 -146 -4 -150
-10z m293 -84 c18 -24 52 -65 77 -91 l46 -47 -33 7 c-91 19 -257 110 -287 158
-10 16 -5 17 77 17 l89 0 31 -44z"/>
<path d="M714 705 c-11 -28 10 -36 82 -33 61 3 69 5 69 23 0 18 -8 20 -73 23
-59 2 -73 0 -78 -13z"/>
</g>
</svg>
